<svg width="145" height="141" viewBox="0 0 145 141" fill="none" xmlns="http://www.w3.org/2000/svg">
<rect x="1" y="116" width="139" height="24" stroke="#10185A" stroke-width="2"/>
<rect x="4" y="41" width="141" height="67" fill="#FBCED6"/>
<rect x="1" y="38" width="139" height="65" stroke="#10185A" stroke-width="2"/>
<rect x="1" y="1" width="139" height="24" stroke="#10185A" stroke-width="2"/>
<rect x="12" y="11" width="48" height="4" fill="#10185A"/>
<rect x="12" y="48" width="39" height="4" fill="#10185A"/>
<rect x="12" y="68" width="96" height="2" fill="#10185A"/>
<rect x="12" y="76" width="84" height="2" fill="#10185A"/>
<rect x="12" y="83" width="92" height="2" fill="#10185A"/>
<rect x="12" y="90" width="51" height="2" fill="#10185A"/>
<rect x="12" y="126" width="73" height="4" fill="#10185A"/>
<path d="M118 10L123.5 16L129 10" stroke="#10185A" stroke-width="2"/>
<path d="M129 52L123.5 47L118 52" stroke="#10185A" stroke-width="2"/>
<path d="M118 125L123.5 130L129 125" stroke="#10185A" stroke-width="2"/>
</svg>
