<svg width="194" height="181" viewBox="0 0 194 181" fill="none" xmlns="http://www.w3.org/2000/svg">
<rect x="4" y="4" width="20" height="20" fill="#E6D2F9"/>
<rect x="99" y="113" width="20" height="20" fill="#E6D2F9"/>
<rect x="4" y="29" width="20" height="20" fill="#E6D2F9"/>
<rect x="99" y="138" width="20" height="20" fill="#E6D2F9"/>
<rect x="1" y="1" width="18" height="18" stroke="#10185A" stroke-width="2"/>
<rect x="1" y="27" width="18" height="18" stroke="#10185A" stroke-width="2"/>
<rect x="1" y="53" width="18" height="18" stroke="#10185A" stroke-width="2"/>
<rect x="26" y="8" width="43" height="4" fill="#10185A"/>
<rect x="26" y="34" width="73" height="4" fill="#10185A"/>
<rect x="26" y="60" width="55" height="4" fill="#10185A"/>
<path d="M6 36.6L8.28571 39L14 33" stroke="#10185A" stroke-width="2"/>
<path d="M6 10.6L8.28571 13L14 7" stroke="#10185A" stroke-width="2"/>
<rect x="96" y="110" width="18" height="18" stroke="#10185A" stroke-width="2"/>
<rect x="96" y="136" width="18" height="18" stroke="#10185A" stroke-width="2"/>
<rect x="96" y="162" width="18" height="18" stroke="#10185A" stroke-width="2"/>
<rect x="100" y="114" width="10" height="10" fill="#10185A"/>
<rect x="100" y="140" width="10" height="10" fill="#10185A"/>
<rect x="121" y="117" width="43" height="4" fill="#10185A"/>
<rect x="121" y="143" width="73" height="4" fill="#10185A"/>
<rect x="121" y="169" width="55" height="4" fill="#10185A"/>
<path d="M14 110V157.978H61M61 157.978L50.0548 146.956M61 157.978L50.0548 169" stroke="#10185A" stroke-width="2"/>
<path d="M182 73L182 25.022L135 25.022M135 25.022L145.945 36.044M135 25.022L145.945 14" stroke="#10185A" stroke-width="2"/>
</svg>
